<?xml version="1.0" standalone="no"?>
<!DOCTYPE svg PUBLIC "-//W3C//DTD SVG 20010904//EN"
 "http://www.w3.org/TR/2001/REC-SVG-20010904/DTD/svg10.dtd">
<svg version="1.0" xmlns="http://www.w3.org/2000/svg"
 width="1152.000000pt" height="648.000000pt" viewBox="0 0 1152.000000 648.000000"
 preserveAspectRatio="xMidYMid meet">
<metadata>
Created by potrace 1.16, written by Peter Selinger 2001-2019
</metadata>
<g transform="translate(0.000000,648.000000) scale(0.100000,-0.100000)"
fill="#000000" stroke="none">
<path d="M90 5705 l0 -685 42 -26 c23 -15 143 -94 265 -175 l224 -149 267 173
267 174 3 686 2 687 -535 0 -535 0 0 -685z m724 214 c94 -39 183 -78 199 -85
l27 -15 0 -169 c0 -94 -2 -170 -5 -170 -2 0 -25 10 -50 22 l-45 22 0 119 0
118 -57 25 c-44 20 -58 22 -64 12 -6 -8 -9 -9 -9 -2 0 7 -10 14 -21 17 -21 6
-21 3 -15 -55 6 -47 4 -59 -6 -56 -7 3 -14 21 -16 41 -4 48 -20 48 -25 0 l-4
-38 -1 42 c-3 55 -22 67 -22 14 0 -23 -4 -41 -10 -41 -5 0 -10 20 -10 45 0 25
-4 45 -10 45 -5 0 -10 -18 -10 -40 0 -25 -5 -40 -12 -41 -19 -1 113 -35 168
-44 37 -5 46 -4 41 7 -3 7 -12 30 -21 51 -9 20 -14 37 -12 37 7 0 56 -111 56
-126 0 -8 9 -14 20 -14 16 0 20 -7 20 -35 0 -19 -4 -35 -10 -35 -5 0 -10 -7
-10 -16 0 -11 -5 -14 -16 -10 -9 3 -20 6 -25 6 -5 0 -10 15 -10 33 -2 30 -2
30 -6 5 -6 -39 -23 -35 -25 5 l-1 32 -4 -33 c-4 -29 -7 -33 -26 -28 -12 3 -30
6 -39 6 -12 0 -18 10 -20 37 -2 25 -8 37 -20 39 -14 2 -18 -5 -18 -32 0 -36
-5 -39 -59 -28 -27 6 -31 10 -31 40 0 19 -4 34 -10 34 -5 0 -10 -16 -10 -35 0
-19 -4 -35 -10 -35 -5 0 -10 18 -10 40 0 22 -4 40 -10 40 -5 0 -10 -16 -10
-36 0 -31 -3 -35 -22 -32 -22 3 -23 8 -23 85 0 78 -1 82 -20 77 -18 -6 -18 -5
-4 7 11 9 18 34 21 71 l5 58 -39 -6 c-49 -8 -49 6 1 27 37 16 40 16 46 0 5
-11 9 -12 12 -3 3 6 9 10 14 6 14 -8 11 -24 -5 -24 -13 0 -32 -102 -21 -119 2
-5 24 -14 49 -20 24 -6 51 -13 60 -17 14 -5 16 8 16 120 0 69 3 126 6 126 4 0
83 -32 178 -71z m-498 -150 c-34 -27 -34 -68 -1 -99 l25 -23 0 67 0 68 26 -6
c15 -4 38 -9 53 -12 26 -5 26 -6 23 -80 -2 -41 -5 -74 -7 -74 -19 0 -35 17
-35 36 0 17 -6 24 -20 24 -14 0 -20 -7 -20 -21 0 -17 -4 -20 -25 -15 -85 21
-115 55 -115 131 l0 52 58 26 57 26 3 -40 c3 -33 -1 -44 -22 -60z m-7 -335 c1
-112 4 -133 19 -146 9 -8 80 -58 157 -111 l141 -95 154 112 c155 112 180 140
151 169 -8 8 -11 3 -11 -19 0 -27 -13 -39 -142 -128 -78 -55 -147 -99 -153
-99 -6 0 -72 41 -148 92 l-137 91 0 129 0 128 95 -28 c52 -16 174 -42 271 -59
184 -31 250 -53 297 -97 44 -43 33 -107 -30 -164 -44 -41 -332 -249 -344 -249
-6 0 -101 63 -210 141 l-199 140 0 195 0 194 44 -33 45 -32 0 -131z"/>
<path d="M774 5898 c3 -13 6 -30 6 -39 0 -11 27 -27 85 -49 l85 -33 0 -122 0
-121 35 -17 c20 -9 38 -17 41 -17 2 0 3 71 2 157 l-3 157 -120 52 c-66 29
-124 53 -129 53 -4 1 -6 -9 -2 -21z"/>
<path d="M920 5405 c0 -3 10 -19 22 -35 17 -24 19 -34 11 -53 -6 -13 -81 -74
-167 -136 l-156 -113 0 -49 0 -50 53 39 c28 21 97 71 152 112 127 92 162 126
175 166 18 52 -4 85 -82 122 -5 2 -8 0 -8 -3z"/>
<path d="M1505 6096 c-39 -17 -55 -37 -61 -78 -11 -63 28 -90 181 -128 59 -14
78 -32 78 -70 0 -48 -40 -80 -101 -80 -57 0 -102 25 -134 75 -28 42 -43 45
-34 8 26 -107 30 -115 52 -93 6 6 27 4 59 -6 98 -30 196 13 211 93 13 71 -22
104 -143 135 -43 11 -86 27 -95 35 -37 33 -14 83 44 97 37 8 91 -15 128 -55
38 -42 47 -32 25 25 -17 44 -30 57 -37 36 -2 -6 -19 -4 -43 5 -50 18 -91 18
-130 1z"/>
<path d="M1791 6009 c-17 -49 -13 -55 17 -27 30 29 79 51 93 42 5 -3 9 -68 9
-145 0 -132 -1 -139 -20 -139 -11 0 -20 -4 -20 -10 0 -6 30 -10 70 -10 66 0
98 15 48 22 -22 3 -23 6 -26 141 -3 150 0 157 51 138 15 -6 36 -22 49 -36 30
-35 37 -31 25 15 l-11 40 -137 0 -137 0 -11 -31z"/>
<path d="M2148 6028 c21 -11 22 -16 22 -145 0 -126 -1 -135 -20 -140 -53 -14
-8 -23 114 -23 l133 0 21 50 c22 53 17 64 -14 29 -25 -29 -92 -59 -131 -59
-47 0 -63 22 -63 86 l0 54 45 0 c36 0 45 -3 45 -17 0 -10 5 -25 10 -33 7 -10
10 8 10 60 0 44 -4 70 -9 65 -5 -6 -11 -19 -13 -30 -3 -16 -11 -20 -43 -20
l-40 0 -3 47 c-3 41 0 49 22 63 36 24 116 4 161 -41 23 -23 29 -11 15 30 l-12
36 -136 -1 c-106 0 -132 -3 -114 -11z"/>
<path d="M2459 6027 c19 -9 39 -48 85 -160 41 -101 65 -147 74 -145 8 2 42 70
76 153 51 126 65 150 86 156 16 4 -1 7 -45 7 -58 0 -65 -1 -42 -10 15 -5 27
-13 27 -17 0 -12 -81 -216 -89 -224 -4 -4 -27 44 -51 108 -23 64 -41 117 -39
119 2 2 13 8 24 14 16 9 6 11 -55 12 -66 0 -72 -2 -51 -13z"/>
<path d="M2843 6028 l27 -10 0 -135 c0 -126 -1 -135 -20 -140 -53 -14 -8 -23
114 -23 l133 0 21 50 c22 53 17 64 -14 29 -25 -29 -92 -59 -131 -59 -47 0 -63
22 -63 86 l0 54 45 0 c36 0 45 -3 45 -17 0 -10 5 -25 10 -33 7 -10 10 8 10 60
0 44 -4 70 -9 65 -5 -6 -11 -19 -13 -30 -3 -16 -11 -20 -43 -20 l-40 0 0 50
c0 42 4 51 25 63 32 18 96 3 140 -35 38 -31 46 -26 30 21 l-12 36 -141 -1
c-107 0 -135 -3 -114 -11z"/>
<path d="M3188 6028 c21 -11 22 -16 22 -150 0 -131 -1 -138 -20 -138 -11 0
-20 -4 -20 -10 0 -5 25 -10 55 -10 60 0 68 5 30 20 -25 9 -25 10 -25 135 0 69
2 125 4 125 2 0 43 -63 91 -140 63 -102 91 -140 106 -140 18 0 19 8 19 150 0
124 3 150 14 150 8 0 18 5 21 10 4 6 -15 10 -52 9 -52 -1 -55 -2 -30 -12 l27
-11 0 -115 c0 -64 -4 -111 -8 -105 -5 5 -41 62 -81 127 l-72 117 -52 -1 c-45
0 -49 -2 -29 -11z"/>
<path d="M3563 6030 c-28 -12 -45 -44 -41 -78 4 -32 51 -67 105 -77 75 -14
103 -31 103 -64 0 -37 -40 -71 -83 -71 -37 0 -89 31 -107 65 -17 31 -35 33
-26 3 4 -13 9 -35 12 -50 7 -28 18 -36 29 -19 3 6 19 4 40 -5 69 -29 147 -5
171 52 27 63 -6 101 -110 128 -33 8 -68 24 -79 35 -19 19 -19 21 -3 45 13 21
25 26 56 26 32 0 48 -7 80 -36 42 -38 47 -36 29 13 -7 21 -17 31 -32 32 -12 0
-44 3 -72 6 -27 2 -60 0 -72 -5z"/>
<path d="M2013 5453 c329 -2 865 -2 1190 0 326 1 57 2 -598 2 -655 0 -921 -1
-592 -2z"/>
</g>
</svg>
